<svg xmlns="http://www.w3.org/2000/svg" viewBox="0 0 800 600" preserveAspectRatio="xMidYMid slice">
  <defs>
    <linearGradient id="sky3" x1="0" y1="0" x2="0" y2="1">
      <stop offset="0" stop-color="#fff7ed"/>
      <stop offset="1" stop-color="#ffedd5"/>
    </linearGradient>
  </defs>

  <!-- Sky -->
  <rect width="800" height="600" fill="url(#sky3)"/>

  <!-- Sun & cloud -->
  <circle cx="130" cy="100" r="60" fill="#fde68a" opacity="0.5"/>
  <circle cx="130" cy="100" r="40" fill="#fcd34d"/>
  <g fill="#ffffff" opacity="0.9">
    <ellipse cx="600" cy="90" rx="52" ry="22"/>
    <ellipse cx="560" cy="100" rx="34" ry="16"/>
    <ellipse cx="640" cy="100" rx="36" ry="16"/>
  </g>

  <!-- Ground -->
  <rect y="480" width="800" height="120" fill="#fed7aa"/>

  <!-- Apartment building -->
  <g transform="translate(150 160)">
    <rect x="-12" y="-24" width="304" height="24" fill="#c2410c" rx="6"/>
    <rect x="0" y="0" width="280" height="320" fill="#ffffff" stroke="#ea580c" stroke-width="5"/>
    <!-- floor 1 windows -->
    <rect x="28" y="28" width="52" height="52" fill="#ffedd5" stroke="#c2410c" stroke-width="4"/>
    <rect x="114" y="28" width="52" height="52" fill="#ffedd5" stroke="#c2410c" stroke-width="4"/>
    <rect x="200" y="28" width="52" height="52" fill="#ffedd5" stroke="#c2410c" stroke-width="4"/>
    <!-- floor 2 windows -->
    <rect x="28" y="124" width="52" height="52" fill="#ffedd5" stroke="#c2410c" stroke-width="4"/>
    <rect x="114" y="124" width="52" height="52" fill="#ffedd5" stroke="#c2410c" stroke-width="4"/>
    <rect x="200" y="124" width="52" height="52" fill="#ffedd5" stroke="#c2410c" stroke-width="4"/>
    <!-- balcony rails -->
    <rect x="16" y="88" width="248" height="10" fill="#fdba74" rx="4"/>
    <rect x="16" y="184" width="248" height="10" fill="#fdba74" rx="4"/>
    <!-- entrance -->
    <rect x="106" y="232" width="68" height="88" fill="#9a3412" rx="4"/>
    <rect x="118" y="248" width="44" height="40" fill="#ffedd5" rx="3"/>
  </g>

  <!-- Small house -->
  <g transform="translate(520 328)">
    <polygon points="-12,0 65,-48 142,0" fill="#ea580c"/>
    <rect x="0" y="0" width="130" height="84" fill="#ffffff"/>
    <rect x="54" y="38" width="26" height="46" fill="#9a3412" rx="2"/>
    <rect x="14" y="20" width="26" height="26" fill="#ffedd5" stroke="#c2410c" stroke-width="3"/>
    <rect x="92" y="20" width="26" height="26" fill="#ffedd5" stroke="#c2410c" stroke-width="3"/>
  </g>

  <!-- Parking sign -->
  <g transform="translate(700 380)">
    <rect x="24" y="0" width="10" height="100" fill="#7c5f4c" rx="3"/>
    <rect x="0" y="-56" width="58" height="58" fill="#ea580c" rx="10"/>
    <text x="29" y="-13" text-anchor="middle" font-family="Arial, sans-serif" font-size="42" font-weight="700" fill="#ffffff">P</text>
  </g>

  <!-- Key -->
  <g transform="translate(560 130) rotate(30)">
    <circle cx="0" cy="0" r="44" fill="none" stroke="#d97706" stroke-width="20"/>
    <rect x="34" y="-10" width="130" height="20" fill="#d97706" rx="8"/>
    <rect x="120" y="6" width="16" height="26" fill="#d97706" rx="4"/>
    <rect x="146" y="6" width="16" height="34" fill="#d97706" rx="4"/>
  </g>
</svg>
